PathFileType	4	(X/Y/Z)	Patient4_TMGait_0pt7_02_right_29.trc.trc
DataRate	CameraRate	NumFrames	NumMarkers	Units	OrigDataRate	OrigDataStartFrame	OrigNumFrames
86.956521739130	86.956521739130	6	33	mm	86.956521739130	18	       141
Frame#	Time	Sacral			L.Shoulder			Chest			R.Shoulder			Neck			R.ASIS			L.ASIS			R.Thigh.Superior			R.Thigh.Lateral			R.Thigh.Inferior			R.Patella			L.Thigh.Superior			L.Thigh.Lateral			L.Thigh.Inferior			L.Patella			L.Shank.Superior			L.Shank.Lateral			L.Shank.Inferior			R.Shank.Superior			R.Shank.Lateral			R.Shank.Inferior			R.Heel			R.Midfoot.Superior			R.Midfoot.Lateral			R.Toe			L.Heel			L.Midfoot.Lateral			L.Midfoot.Superior			L.Toe			L.Elbow			L.Wrist			R.Elbow			R.Wrist			
		X1	Y1	Z1	X2	Y2	Z2	X3	Y3	Z3	X4	Y4	Z4	X5	Y5	Z5	X6	Y6	Z6	X7	Y7	Z7	X8	Y8	Z8	X9	Y9	Z9	X10	Y10	Z10	X11	Y11	Z11	X12	Y12	Z12	X13	Y13	Z13	X14	Y14	Z14	X15	Y15	Z15	X16	Y16	Z16	X17	Y17	Z17	X18	Y18	Z18	X19	Y19	Z19	X20	Y20	Z20	X21	Y21	Z21	X22	Y22	Z22	X23	Y23	Z23	X24	Y24	Z24	X25	Y25	Z25	X26	Y26	Z26	X27	Y27	Z27	X28	Y28	Z28	X29	Y29	Z29	X30	Y30	Z30	X31	Y31	Z31	X32	Y32	Z32	X33	Y33	Z33	

18	32.725500000000	830.840346020980	1008.394547151625	431.661542146634	1052.227323204257	1424.581983866564	258.117881768370	1137.506099871658	1344.606321257449	425.384995282645	1049.165397431042	1426.558832544763	592.848460353756	1045.900070100252	1484.828535238081	411.734826715429	1046.110172357709	940.848192735935	567.490274578623	1050.965768745459	946.918308981781	291.409162701725	1125.536009690877	779.318411346513	540.180777506212	1092.005847881099	656.330067082776	618.296628375501	1181.287143773358	622.024476039852	538.058571161641	1220.396746769364	538.333340306256	558.554509238701	1048.947629125367	722.371455224047	323.504270553632	934.349847255526	632.238650240647	252.145362667242	988.061274642677	536.128097842814	318.844798786107	970.585118648381	470.657153169958	327.246035735622	935.698068094867	404.510037284260	316.143644479993	832.027950553292	305.827540302299	260.755312472685	860.411205396230	187.679171588469	332.025099007529	1202.098293688789	447.834399675400	570.877682430579	1148.101703664534	337.330015728515	639.887861528903	1212.990646181826	247.938093363505	588.454743169886	1115.435094033722	61.449433117775	568.856158148496	1280.320056814396	135.388264301498	601.739164933389	1203.575363448254	57.536702043077	636.677165905259	1405.594723098287	97.679909668586	620.331891523041	713.812593062803	41.301883448702	367.182307125156	788.637088578786	36.627603527330	288.271417431778	872.684105198134	95.570961661299	316.753106193737	1000.473881071411	39.449452306023	288.813973375762	1121.840421858235	1110.460697938533	99.525970107276	1365.036394847070	1094.220894243610	174.565882681542	946.020736344376	1094.228926699010	712.195699306603	959.836534780869	831.821815464359	732.551189629438	
19	32.737000000000	833.096387765855	1005.707939100073	434.332175732037	1051.858054370852	1422.731313732873	260.189950812312	1138.301494126207	1342.928487575720	426.863443276209	1050.601483675087	1424.557469822998	594.826759568682	1046.412660881982	1482.790686493058	413.660339259252	1049.020027593446	938.071862432060	568.848499980596	1052.564095069400	945.033590381998	292.915933621686	1126.531270825526	774.325041066443	541.906958313082	1090.820277037315	651.685099624573	620.008950102792	1179.815931880024	616.790312715939	539.694015580080	1217.774298835131	534.304050031504	559.490474033188	1048.230692879520	720.001937979431	323.990314843985	931.930403626879	631.273021981623	253.141806522157	984.675898153384	534.387471277475	319.311558631837	966.486147622816	468.968252903103	327.661477566087	930.924533862858	403.281474746807	316.587200168828	825.952063623481	305.762802844037	261.302293388887	853.273937680014	187.152537397720	332.222383784595	1201.585179104501	443.896123541927	572.066368926951	1149.638365507252	331.874357620589	640.193706227262	1217.169749630160	244.179446650508	588.780501795792	1124.041217585214	55.894943858861	567.623961267602	1287.272265637433	132.512582068576	601.677594915070	1211.800956219254	53.459877055612	635.993694645497	1413.260713265881	97.056103821006	621.058564021944	705.692267748803	41.391508951760	367.212570037885	780.539897011831	36.673670446124	288.311076170061	864.628554645352	95.502247607582	316.827193479526	992.369360956953	39.356758776074	288.757759621348	1126.614073458546	1110.379115575025	101.781135271992	1369.163576523927	1104.716409926662	178.864252464520	941.608941652300	1094.830703692025	714.266159339572	944.569838125833	832.237718618029	733.741088978159	
20	32.748500000000	835.554727680575	1002.881940502972	437.288903721474	1051.343118531898	1420.794738961014	262.451455166472	1139.166392224554	1341.219601334526	428.445887783444	1052.181796531373	1422.436057970292	597.002889494242	1046.914897720298	1480.659913973035	415.808101788205	1052.182828101224	935.100771316147	570.343323829916	1054.347493072923	943.012122044091	294.636413490774	1128.050600710484	769.384814224341	543.793909092581	1090.086658363758	646.998797200134	621.524370802793	1179.014798275282	611.740198647217	541.329632305250	1215.574413250201	529.958648568732	560.369820780526	1047.874249647131	717.572985056358	324.662315393050	929.998357217797	630.164424091804	254.349289235619	981.942932284770	532.528125802632	319.946499270059	963.117777607636	467.012375911803	328.202047822875	926.689121565527	401.844503355210	317.159055563923	820.225722551966	305.706389140895	261.953072360057	846.292728787516	186.574419867916	332.439060253006	1200.874943358965	439.562167439420	573.017148485161	1149.940445783920	326.488902973051	639.989633459595	1219.375456227151	240.063999555767	588.643807361871	1128.959195218312	51.360051900834	565.733987889893	1291.129826613292	128.866816810048	601.107514458010	1216.118223723833	49.656515046584	634.826819323165	1417.336820726685	94.350953931327	621.499722172703	697.542593315411	41.565429973541	367.192928169268	772.444385649034	36.727731925780	288.325066154651	856.612447173301	95.431671586237	316.880865516772	984.295894167445	39.261067262070	288.694729683949	1130.749208688994	1110.050516907544	104.193094834206	1372.281353298970	1114.223341796653	183.123972745787	937.497770029098	1095.432476307387	716.597176583078	931.009759901398	833.126960827549	734.227095212751	
21	32.760000000000	838.156047279045	1000.001324949004	440.493896539890	1050.763423715574	1418.808709282225	264.896978446483	1140.116342149495	1339.517498987539	430.164320348468	1053.877953520839	1420.247204050117	599.370949584251	1047.443010939836	1478.492607495184	418.176845024742	1055.530278906583	932.025079693411	571.999890661020	1056.290158543766	940.919488585203	296.572943182827	1130.116878409581	764.660017300483	545.817583511722	1089.859126800292	642.415916239952	622.779649462525	1178.962755397540	607.038711614944	542.919524275638	1213.947310678747	525.470130492510	561.101584902934	1047.942851651019	715.139134992782	325.548832492155	928.654909696933	628.908329576702	255.786361575238	980.008898190642	530.553649121530	320.766764200306	960.648779173203	464.763685685262	328.867530088105	923.111208791635	400.184015200188	317.869626639404	814.960033182888	305.690860974368	262.709901115545	839.530122369591	185.975421475303	332.666927042182	1200.134024994678	434.998591479895	573.647278366450	1149.313264072714	321.302303482273	639.371079925739	1219.847965845166	235.681968351532	588.054265950159	1130.396312395039	47.793193602648	563.462299871262	1292.175338456545	124.571843244041	600.040651330410	1216.856904120230	46.192857362030	633.357310353849	1418.196177670614	89.767909845191	621.541360903889	689.374958469716	41.923869424227	367.106989829590	764.359247546655	36.830608942644	288.304683733894	848.677611344583	95.371457661656	316.893129020917	976.261431306528	39.161775311321	288.625685960870	1134.183847330867	1109.426520856053	106.747584061472	1374.431296973720	1122.648071364659	187.305831246603	933.800784905956	1095.993041322349	719.167296707478	919.069684206583	834.263683461557	734.206455248449	
22	32.771500000000	840.826080456804	997.168996206440	443.896775111253	1050.213241010939	1416.823460613286	267.514598719349	1141.170318560714	1337.865358236211	432.046534131603	1055.674923360261	1418.060012023936	601.920231532592	1048.047485010465	1476.360073618899	420.758208450478	1058.982636747940	928.957734473027	573.837829909035	1058.344860120203	938.835698189010	298.714662685190	1132.713974349608	760.310823713976	547.943035842696	1090.173912734781	638.103012145864	623.755087499515	1179.680540545464	602.836255895398	544.419326688203	1213.005600441392	521.040141210108	561.612247587440	1048.495022573032	712.772536585089	326.665951779495	928.003029500835	627.506466912299	257.462935800221	979.032171758703	528.479517202087	321.778661816346	959.257812569251	462.212063636371	329.644691493238	920.322161508914	398.302132275746	318.718680344224	810.282009510337	305.768667089142	263.572005799039	833.068862344510	185.407488675218	332.895371208784	1199.519223553913	430.410765798592	573.915936956694	1148.103791231151	316.480551443099	638.477086498058	1218.899719359192	231.192106999437	587.064056191238	1128.753194226057	45.130212593257	561.089532387536	1290.801855800630	119.860589163290	598.547316202072	1214.521989449828	43.166307494884	631.779176162529	1416.329650471095	83.728142438058	621.140653017774	681.218541672389	42.609988317142	366.945108516670	756.301192290434	37.053051288875	288.244529558569	840.882836164261	95.342349137003	316.841143445517	968.270922242954	39.056621286243	288.551869131268	1136.855474935427	1108.464867744779	109.438106771808	1375.659661020802	1129.896983066983	191.370702108003	930.626736422329	1096.479315325677	721.929785566797	908.659609793125	835.476295974024	733.893014033743	
23	32.783000000000	843.481667281747	994.499045699798	447.437708432150	1049.793090105010	1414.903198132822	270.285084757013	1142.347543339604	1336.310716310298	434.112216168751	1057.570854175255	1415.958419424344	604.634935433980	1048.787832981969	1474.345187991504	423.534808547619	1062.452516533133	926.028392923557	575.870005264583	1060.446114510947	936.850492934371	301.037441489511	1135.782162465897	756.493272647714	550.125384793105	1091.052302451703	634.242254627595	624.481020525513	1181.126579202040	599.264657104341	545.791533849975	1212.809685201532	516.883270021895	561.868352021779	1049.576082794756	710.559330930159	328.019389800240	928.143506385079	625.968185849701	259.377239615298	979.175210336323	526.335571148244	322.976530139495	959.122298069114	459.369682071964	330.506592452580	918.462012053743	396.222115567713	319.693100410164	806.331320129478	306.013490601965	264.535792547006	827.014605754011	184.946726027342	333.112294168082	1199.156894376413	426.023656741589	573.836387640683	1146.649549507096	312.205707063727	637.474938907281	1216.872095677373	226.800164377588	585.767188211576	1124.570017139840	43.288845546625	558.861638740618	1287.460026283449	115.040894104476	596.752713293931	1209.729081079243	40.672095259808	630.271988868109	1412.288377763281	76.812484377239	620.340314385386	673.126901258182	43.811732895641	366.708365469131	748.298639637847	37.502228551662	288.144868052006	833.305144622684	95.375920237320	316.703899742952	960.324760804883	38.939875771204	288.475310039315	1138.700993847875	1107.137268747493	112.266593044084	1376.016613898510	1135.877750077429	195.282096414705	928.071939390619	1096.871922834138	724.819122436274	899.713451737386	836.647407593570	733.494764161676	
